<svg version="1.1" viewBox="0 0 457 83" xmlns="http://www.w3.org/2000/svg"><defs><style>.cls-1{fill:#d9bf7f;}</style></defs><g transform="translate(1.02 -.36946)"><path class="cls-1" d="m122.38 58.89h-6.38l-13.45-33.55h6.34l10.32 25.05 10.32-25h6.33z"/><path class="cls-1" d="m145.94 25.34h5.67v33.55h-5.67z"/><path class="cls-1" d="m189.77 25.34v5.32h-17.91v8.88h16.08v5h-16.08v9h18.48v5.33h-24.14v-33.53z"/><path class="cls-1" d="m215.54 30.52v28.37h-5.66v-28.37h-10.18v-5.18h26v5.18z"/><path class="cls-1" d="m251.83 58.89h-14.69v-33.55h13.06a19 19 0 015.88.81 8.08 8.08 0 013.67 2.21 8.56 8.56 0 012.3 5.86 6.92 6.92 0 01-2.49 5.85 10.94 10.94 0 01-1.25.84c-.22.11-.62.3-1.2.55a8.83 8.83 0 015 2.81 7.84 7.84 0 011.85 5.31 9 9 0 01-2.4 6.19q-2.86 3.12-9.73 3.12zm-9-19.63h7.17c4.09 0 6.14-1.4 6.14-4.18a4 4 0 00-1.49-3.46 8.07 8.07 0 00-4.61-1.05h-7.24zm0 14.4h8.88a9.37 9.37 0 004.77-1c1.11-.65 1.66-1.89 1.66-3.72 0-3-2.39-4.46-7.15-4.46h-8.16z"/><path class="cls-1" d="m304.39 54.26a18.42 18.42 0 01-25.15 0 16.63 16.63 0 01-5.09-12.39 16.61 16.61 0 015.09-12.38 18.39 18.39 0 0125.15 0 16.61 16.61 0 015.09 12.38 16.63 16.63 0 01-5.09 12.39zm-4.15-21a11.75 11.75 0 00-16.85 0 11.92 11.92 0 00-3.39 8.61 11.94 11.94 0 003.43 8.62 11.77 11.77 0 0016.85 0 11.94 11.94 0 003.43-8.62 11.92 11.92 0 00-3.47-8.61z"/><path class="cls-1" d="m325.8 51.26-3.36 7.63h-6.05l14.79-33.55h6l14.82 33.55h-6l-3.36-7.63zm14.49-5.26-6.09-13.8-6.1 13.8z"/><path class="cls-1" d="m388.73 36.23q0 8.31-7.25 10.47l8.78 12.19h-7.2l-8-11.28h-7.44v11.28h-5.67v-33.55h12.48q7.68 0 11 2.59c2.19 1.73 3.3 4.49 3.3 8.3zm-7.54 4.77q1.72-1.48 1.73-4.77c0-2.19-.59-3.7-1.78-4.51s-3.29-1.23-6.33-1.23h-7.2v12h7.05c3.2-.02 5.34-.49 6.53-1.49z"/><path class="cls-1" d="m427.56 29.73q4.85 4.39 4.85 12.21t-4.71 12.39q-4.69 4.56-14.4 4.56h-11.13v-33.55h11.52q9.02 0 13.87 4.39zm-.87 12.36q0-11.52-13.2-11.52h-5.66v23h6.29q6.09 0 9.33-2.9t3.24-8.58z"/></g><path class="cls-1" d="m83 83h-83v-83h83zm-80-3h77v-77h-77z"/><path class="cls-1" d="m457 83h-377v-83h377zm-374-3h371v-77h-371z"/><g transform="translate(-.44 .25)"><circle class="cls-1" cx="11.25" cy="9.25" r="1.75"/><circle class="cls-1" cx="18.92" cy="9.25" r="1.75"/><circle class="cls-1" cx="26.59" cy="9.25" r="1.75"/><circle class="cls-1" cx="34.27" cy="9.25" r="1.75"/><circle class="cls-1" cx="41.94" cy="9.25" r="1.75"/><circle class="cls-1" cx="49.61" cy="9.25" r="1.75"/><circle class="cls-1" cx="57.28" cy="9.25" r="1.75"/><circle class="cls-1" cx="64.95" cy="9.25" r="1.75"/><circle class="cls-1" cx="72.63" cy="9.25" r="1.75"/><circle class="cls-1" cx="11.25" cy="17.25" r="1.75"/><circle class="cls-1" cx="18.92" cy="17.25" r="1.75"/><circle class="cls-1" cx="26.59" cy="17.25" r="1.75"/><circle class="cls-1" cx="34.27" cy="17.25" r="1.75"/><circle class="cls-1" cx="41.94" cy="17.25" r="1.75"/><circle class="cls-1" cx="49.61" cy="17.25" r="1.75"/><circle class="cls-1" cx="57.28" cy="17.25" r="1.75"/><circle class="cls-1" cx="64.95" cy="17.25" r="1.75"/><circle class="cls-1" cx="72.63" cy="17.25" r="1.75"/><circle class="cls-1" cx="11.25" cy="25.25" r="1.75"/><circle class="cls-1" cx="18.92" cy="25.25" r="1.75"/><circle class="cls-1" cx="26.59" cy="25.25" r="1.75"/><circle class="cls-1" cx="34.27" cy="25.25" r="1.75"/><circle class="cls-1" cx="41.94" cy="25.25" r="1.75"/><circle class="cls-1" cx="49.61" cy="25.25" r="1.75"/><circle class="cls-1" cx="57.28" cy="25.25" r="1.75"/><circle class="cls-1" cx="64.95" cy="25.25" r="1.75"/><circle class="cls-1" cx="72.63" cy="25.25" r="1.75"/><circle class="cls-1" cx="11.25" cy="33.25" r="1.75"/><circle class="cls-1" cx="18.92" cy="33.25" r="1.75"/><circle class="cls-1" cx="26.59" cy="33.25" r="1.75"/><circle class="cls-1" cx="34.27" cy="33.25" r="1.75"/><circle class="cls-1" cx="41.94" cy="33.25" r="1.75"/><circle class="cls-1" cx="49.61" cy="33.25" r="1.75"/><circle class="cls-1" cx="57.28" cy="33.25" r="1.75"/><circle class="cls-1" cx="64.95" cy="33.25" r="1.75"/><circle class="cls-1" cx="72.63" cy="33.25" r="1.75"/><circle class="cls-1" cx="11.25" cy="41.25" r="1.75"/><circle class="cls-1" cx="18.92" cy="41.25" r="1.75"/><circle class="cls-1" cx="26.59" cy="41.25" r="1.75"/><circle class="cls-1" cx="34.27" cy="41.25" r="1.75"/><circle class="cls-1" cx="41.94" cy="41.25" r="1.75"/><circle class="cls-1" cx="49.61" cy="41.25" r="1.75"/><circle class="cls-1" cx="57.28" cy="41.25" r="1.75"/><circle class="cls-1" cx="64.95" cy="41.25" r="1.75"/><circle class="cls-1" cx="72.63" cy="41.25" r="1.75"/><circle class="cls-1" cx="11.25" cy="49.25" r="1.75"/><circle class="cls-1" cx="18.92" cy="49.25" r="1.75"/><circle class="cls-1" cx="26.59" cy="49.25" r="1.75"/><circle class="cls-1" cx="34.27" cy="49.25" r="1.75"/><circle class="cls-1" cx="41.94" cy="49.25" r="1.75"/><circle class="cls-1" cx="49.61" cy="49.25" r="1.75"/><circle class="cls-1" cx="57.28" cy="49.25" r="1.75"/><circle class="cls-1" cx="64.95" cy="49.25" r="1.75"/><circle class="cls-1" cx="72.63" cy="49.25" r="1.75"/><circle class="cls-1" cx="11.25" cy="57.25" r="1.75"/><circle class="cls-1" cx="18.92" cy="57.25" r="1.75"/><circle class="cls-1" cx="26.59" cy="57.25" r="1.75"/><circle class="cls-1" cx="34.27" cy="57.25" r="1.75"/><circle class="cls-1" cx="41.94" cy="57.25" r="1.75"/><circle class="cls-1" cx="49.61" cy="57.25" r="1.75"/><circle class="cls-1" cx="57.28" cy="57.25" r="1.75"/><circle class="cls-1" cx="64.95" cy="57.25" r="1.75"/><circle class="cls-1" cx="72.63" cy="57.25" r="1.75"/><circle class="cls-1" cx="11.25" cy="65.25" r="1.75"/><circle class="cls-1" cx="18.92" cy="65.25" r="1.75"/><circle class="cls-1" cx="26.59" cy="65.25" r="1.75"/><circle class="cls-1" cx="34.27" cy="65.25" r="1.75"/><circle class="cls-1" cx="41.94" cy="65.25" r="1.75"/><circle class="cls-1" cx="49.61" cy="65.25" r="1.75"/><circle class="cls-1" cx="57.28" cy="65.25" r="1.75"/><circle class="cls-1" cx="64.95" cy="65.25" r="1.75"/><circle class="cls-1" cx="72.63" cy="65.25" r="1.75"/><circle class="cls-1" cx="11.25" cy="73.25" r="1.75"/><circle class="cls-1" cx="18.92" cy="73.25" r="1.75"/><circle class="cls-1" cx="26.59" cy="73.25" r="1.75"/><circle class="cls-1" cx="34.27" cy="73.25" r="1.75"/><circle class="cls-1" cx="41.94" cy="73.25" r="1.75"/><circle class="cls-1" cx="49.61" cy="73.25" r="1.75"/><circle class="cls-1" cx="57.28" cy="73.25" r="1.75"/><circle class="cls-1" cx="64.95" cy="73.25" r="1.75"/><circle class="cls-1" cx="72.63" cy="73.25" r="1.75"/></g></svg>
