<svg version="1.1" viewBox="0 0 61.514 24.208" xmlns="http://www.w3.org/2000/svg"><g fill="#303108"><path d="m1.0006 24.19a1 1 0 01-.641-1.768l13.408-11.179a1 1 0 011.1-.123l4.753 2.428 4.245-4.091a1 1 0 01.694-.28h2.689l4.984-8.671a1 1 0 01.772-.5 1.017 1.017 0 01.852.34l9.392 10.851 3.95-3.179a1 1 0 011.378.118l12.672 14.393a1 1 0 11-1.5 1.322l-12.038-13.671-3.956 3.184a1 1 0 01-1.383-.124l-9.11-10.517-4.573 7.952a1 1 0 01-.867.5h-2.864l-4.467 4.306a1 1 0 01-1.149.171l-4.8-2.453-12.901 10.759a1 1 0 01-.64.232z"/><path d="m34.015 22.928a1 1 0 01-.463-1.887l9.072-4.73 4.325-7.986a1 1 0 111.758.953l-4.472 8.255a1 1 0 01-.417.41l-9.343 4.872a1 1 0 01-.46.113zm-17.429.516a1 1 0 01-1-1.1l.487-4.921-2.558-4.954a1.0001 1.0001 0 111.777-.918l2.694 5.217a1 1 0 01.107.557l-.217 2.187 6.332-7.025a1 1 0 011.627.2l2.254 4.265 2.315-5.146 1.7-10.959a1.0003 1.0003 0 011.977.307l-1.72 11.092a.962.962 0 01-.076.257l-3.21 7.137a1 1 0 01-.88.589.961.961 0 01-.916-.532l-2.541-4.811-7.409 8.228a1 1 0 01-.743.33z"/><path d="m37.049 18.397a1 1 0 01-.622-1.784l6.08-4.816a1.0013 1.0013 0 111.242 1.571l-6.076 4.816a1 1 0 01-.624.213z"/></g></svg>
