<svg version="1.1" viewBox="0 0 163 163" xmlns="http://www.w3.org/2000/svg"><defs><style>.cls-1{fill:#d9bf7f;}</style></defs><path class="cls-1" d="m46.232 66.5h-9.5082l-20.045-50h9.4486l15.38 37.332 15.38-37.258h9.4337z" style="fill:#cdaa56"/><path class="cls-1" d="m123.33 146.5-21.76-.28164.53363-49.716 19.359.20752a27.793 27.793 0 018.7011 1.3044 11.858 11.858 0 015.4104 3.3352 12.763 12.763 0 013.3203 8.7159 10.376 10.376 0 01-3.7947 8.6418 17.876 17.876 0 01-1.8677 1.2155l-1.7936.80043a13.103 13.103 0 017.3225 4.2394 11.621 11.621 0 012.6533 7.9006 13.341 13.341 0 01-3.6613 9.1309q-4.2542 4.6099-14.423 4.5062zm-13.341-7.9006 13.163.1334a13.77 13.77 0 007.0854-1.3785c1.6454-.94866 2.4902-2.7867 2.5199-5.4845q0-6.6258-10.524-6.7296l-12.096-.1334zm.23717-21.345 10.658.11858q9.1161.0889 9.1754-6.0922a5.7958 5.7958 0 00-2.1493-5.1436 11.769 11.769 0 00-6.8037-1.6454l-10.747-.11858z" style="fill:#cdaa56"/><path class="cls-1" d="m83 83h-83v-83h83zm-80-3h77v-77h-77z" style="fill:#cdaa56"/><path class="cls-1" d="m83 163h-83v-83h83zm-80-3h77v-77h-77z" style="fill:#cdaa56"/><path class="cls-1" d="m163 163h-83v-83h83zm-80-3h77v-77h-77z" style="fill:#cdaa56"/><g transform="translate(-.435 .25)"><circle class="cls-1" cx="11.25" cy="89.25" r="1.75"/><circle class="cls-1" cx="18.92" cy="89.25" r="1.75"/><circle class="cls-1" cx="26.59" cy="89.25" r="1.75"/><circle class="cls-1" cx="34.27" cy="89.25" r="1.75"/><circle class="cls-1" cx="41.94" cy="89.25" r="1.75"/><circle class="cls-1" cx="49.61" cy="89.25" r="1.75"/><circle class="cls-1" cx="57.28" cy="89.25" r="1.75"/><circle class="cls-1" cx="64.95" cy="89.25" r="1.75"/><circle class="cls-1" cx="72.62" cy="89.25" r="1.75"/><circle class="cls-1" cx="11.25" cy="97.25" r="1.75"/><circle class="cls-1" cx="18.92" cy="97.25" r="1.75"/><circle class="cls-1" cx="26.59" cy="97.25" r="1.75"/><circle class="cls-1" cx="34.27" cy="97.25" r="1.75"/><circle class="cls-1" cx="41.94" cy="97.25" r="1.75"/><circle class="cls-1" cx="49.61" cy="97.25" r="1.75"/><circle class="cls-1" cx="57.28" cy="97.25" r="1.75"/><circle class="cls-1" cx="64.95" cy="97.25" r="1.75"/><circle class="cls-1" cx="72.62" cy="97.25" r="1.75"/><circle class="cls-1" cx="11.25" cy="105.25" r="1.75"/><circle class="cls-1" cx="18.92" cy="105.25" r="1.75"/><circle class="cls-1" cx="26.59" cy="105.25" r="1.75"/><circle class="cls-1" cx="34.27" cy="105.25" r="1.75"/><circle class="cls-1" cx="41.94" cy="105.25" r="1.75"/><circle class="cls-1" cx="49.61" cy="105.25" r="1.75"/><circle class="cls-1" cx="57.28" cy="105.25" r="1.75"/><circle class="cls-1" cx="64.95" cy="105.25" r="1.75"/><circle class="cls-1" cx="72.62" cy="105.25" r="1.75"/><circle class="cls-1" cx="11.25" cy="113.25" r="1.75"/><circle class="cls-1" cx="18.92" cy="113.25" r="1.75"/><circle class="cls-1" cx="26.59" cy="113.25" r="1.75"/><circle class="cls-1" cx="34.27" cy="113.25" r="1.75"/><circle class="cls-1" cx="41.94" cy="113.25" r="1.75"/><circle class="cls-1" cx="49.61" cy="113.25" r="1.75"/><circle class="cls-1" cx="57.28" cy="113.25" r="1.75"/><circle class="cls-1" cx="64.95" cy="113.25" r="1.75"/><circle class="cls-1" cx="72.62" cy="113.25" r="1.75"/><circle class="cls-1" cx="11.25" cy="121.25" r="1.75"/><circle class="cls-1" cx="18.92" cy="121.25" r="1.75"/><circle class="cls-1" cx="26.59" cy="121.25" r="1.75"/><circle class="cls-1" cx="34.27" cy="121.25" r="1.75"/><circle class="cls-1" cx="41.94" cy="121.25" r="1.75"/><circle class="cls-1" cx="49.61" cy="121.25" r="1.75"/><circle class="cls-1" cx="57.28" cy="121.25" r="1.75"/><circle class="cls-1" cx="64.95" cy="121.25" r="1.75"/><circle class="cls-1" cx="72.62" cy="121.25" r="1.75"/><circle class="cls-1" cx="11.25" cy="129.25" r="1.75"/><circle class="cls-1" cx="18.92" cy="129.25" r="1.75"/><circle class="cls-1" cx="26.59" cy="129.25" r="1.75"/><circle class="cls-1" cx="34.27" cy="129.25" r="1.75"/><circle class="cls-1" cx="41.94" cy="129.25" r="1.75"/><circle class="cls-1" cx="49.61" cy="129.25" r="1.75"/><circle class="cls-1" cx="57.28" cy="129.25" r="1.75"/><circle class="cls-1" cx="64.95" cy="129.25" r="1.75"/><circle class="cls-1" cx="72.62" cy="129.25" r="1.75"/><circle class="cls-1" cx="11.25" cy="137.25" r="1.75"/><circle class="cls-1" cx="18.92" cy="137.25" r="1.75"/><circle class="cls-1" cx="26.59" cy="137.25" r="1.75"/><circle class="cls-1" cx="34.27" cy="137.25" r="1.75"/><circle class="cls-1" cx="41.94" cy="137.25" r="1.75"/><circle class="cls-1" cx="49.61" cy="137.25" r="1.75"/><circle class="cls-1" cx="57.28" cy="137.25" r="1.75"/><circle class="cls-1" cx="64.95" cy="137.25" r="1.75"/><circle class="cls-1" cx="72.62" cy="137.25" r="1.75"/><circle class="cls-1" cx="11.25" cy="145.25" r="1.75"/><circle class="cls-1" cx="18.92" cy="145.25" r="1.75"/><circle class="cls-1" cx="26.59" cy="145.25" r="1.75"/><circle class="cls-1" cx="34.27" cy="145.25" r="1.75"/><circle class="cls-1" cx="41.94" cy="145.25" r="1.75"/><circle class="cls-1" cx="49.61" cy="145.25" r="1.75"/><circle class="cls-1" cx="57.28" cy="145.25" r="1.75"/><circle class="cls-1" cx="64.95" cy="145.25" r="1.75"/><circle class="cls-1" cx="72.62" cy="145.25" r="1.75"/><circle class="cls-1" cx="11.25" cy="153.25" r="1.75"/><circle class="cls-1" cx="18.92" cy="153.25" r="1.75"/><circle class="cls-1" cx="26.59" cy="153.25" r="1.75"/><circle class="cls-1" cx="34.27" cy="153.25" r="1.75"/><circle class="cls-1" cx="41.94" cy="153.25" r="1.75"/><circle class="cls-1" cx="49.61" cy="153.25" r="1.75"/><circle class="cls-1" cx="57.28" cy="153.25" r="1.75"/><circle class="cls-1" cx="64.95" cy="153.25" r="1.75"/><circle class="cls-1" cx="72.62" cy="153.25" r="1.75"/></g><path class="cls-1" d="m163 83h-83v-83h83zm-80-3h77v-77h-77z" style="fill:#cdaa56"/><g transform="translate(-.435 .25)"><circle class="cls-1" cx="91.25" cy="9.25" r="1.75"/><circle class="cls-1" cx="98.92" cy="9.25" r="1.75"/><circle class="cls-1" cx="106.59" cy="9.25" r="1.75"/><circle class="cls-1" cx="114.27" cy="9.25" r="1.75"/><circle class="cls-1" cx="121.94" cy="9.25" r="1.75"/><circle class="cls-1" cx="129.61" cy="9.25" r="1.75"/><circle class="cls-1" cx="137.28" cy="9.25" r="1.75"/><circle class="cls-1" cx="144.95" cy="9.25" r="1.75"/><circle class="cls-1" cx="152.62" cy="9.25" r="1.75"/><circle class="cls-1" cx="91.25" cy="17.25" r="1.75"/><circle class="cls-1" cx="98.92" cy="17.25" r="1.75"/><circle class="cls-1" cx="106.59" cy="17.25" r="1.75"/><circle class="cls-1" cx="114.27" cy="17.25" r="1.75"/><circle class="cls-1" cx="121.94" cy="17.25" r="1.75"/><circle class="cls-1" cx="129.61" cy="17.25" r="1.75"/><circle class="cls-1" cx="137.28" cy="17.25" r="1.75"/><circle class="cls-1" cx="144.95" cy="17.25" r="1.75"/><circle class="cls-1" cx="152.62" cy="17.25" r="1.75"/><circle class="cls-1" cx="91.25" cy="25.25" r="1.75"/><circle class="cls-1" cx="98.92" cy="25.25" r="1.75"/><circle class="cls-1" cx="106.59" cy="25.25" r="1.75"/><circle class="cls-1" cx="114.27" cy="25.25" r="1.75"/><circle class="cls-1" cx="121.94" cy="25.25" r="1.75"/><circle class="cls-1" cx="129.61" cy="25.25" r="1.75"/><circle class="cls-1" cx="137.28" cy="25.25" r="1.75"/><circle class="cls-1" cx="144.95" cy="25.25" r="1.75"/><circle class="cls-1" cx="152.62" cy="25.25" r="1.75"/><circle class="cls-1" cx="91.25" cy="33.25" r="1.75"/><circle class="cls-1" cx="98.92" cy="33.25" r="1.75"/><circle class="cls-1" cx="106.59" cy="33.25" r="1.75"/><circle class="cls-1" cx="114.27" cy="33.25" r="1.75"/><circle class="cls-1" cx="121.94" cy="33.25" r="1.75"/><circle class="cls-1" cx="129.61" cy="33.25" r="1.75"/><circle class="cls-1" cx="137.28" cy="33.25" r="1.75"/><circle class="cls-1" cx="144.95" cy="33.25" r="1.75"/><circle class="cls-1" cx="152.62" cy="33.25" r="1.75"/><circle class="cls-1" cx="91.25" cy="41.25" r="1.75"/><circle class="cls-1" cx="98.92" cy="41.25" r="1.75"/><circle class="cls-1" cx="106.59" cy="41.25" r="1.75"/><circle class="cls-1" cx="114.27" cy="41.25" r="1.75"/><circle class="cls-1" cx="121.94" cy="41.25" r="1.75"/><circle class="cls-1" cx="129.61" cy="41.25" r="1.75"/><circle class="cls-1" cx="137.28" cy="41.25" r="1.75"/><circle class="cls-1" cx="144.95" cy="41.25" r="1.75"/><circle class="cls-1" cx="152.62" cy="41.25" r="1.75"/><circle class="cls-1" cx="91.25" cy="49.25" r="1.75"/><circle class="cls-1" cx="98.92" cy="49.25" r="1.75"/><circle class="cls-1" cx="106.59" cy="49.25" r="1.75"/><circle class="cls-1" cx="114.27" cy="49.25" r="1.75"/><circle class="cls-1" cx="121.94" cy="49.25" r="1.75"/><circle class="cls-1" cx="129.61" cy="49.25" r="1.75"/><circle class="cls-1" cx="137.28" cy="49.25" r="1.75"/><circle class="cls-1" cx="144.95" cy="49.25" r="1.75"/><circle class="cls-1" cx="152.62" cy="49.25" r="1.75"/><circle class="cls-1" cx="91.25" cy="57.25" r="1.75"/><circle class="cls-1" cx="98.92" cy="57.25" r="1.75"/><circle class="cls-1" cx="106.59" cy="57.25" r="1.75"/><circle class="cls-1" cx="114.27" cy="57.25" r="1.75"/><circle class="cls-1" cx="121.94" cy="57.25" r="1.75"/><circle class="cls-1" cx="129.61" cy="57.25" r="1.75"/><circle class="cls-1" cx="137.28" cy="57.25" r="1.75"/><circle class="cls-1" cx="144.95" cy="57.25" r="1.75"/><circle class="cls-1" cx="152.62" cy="57.25" r="1.75"/><circle class="cls-1" cx="91.25" cy="65.25" r="1.75"/><circle class="cls-1" cx="98.92" cy="65.25" r="1.75"/><circle class="cls-1" cx="106.59" cy="65.25" r="1.75"/><circle class="cls-1" cx="114.27" cy="65.25" r="1.75"/><circle class="cls-1" cx="121.94" cy="65.25" r="1.75"/><circle class="cls-1" cx="129.61" cy="65.25" r="1.75"/><circle class="cls-1" cx="137.28" cy="65.25" r="1.75"/><circle class="cls-1" cx="144.95" cy="65.25" r="1.75"/><circle class="cls-1" cx="152.62" cy="65.25" r="1.75"/><circle class="cls-1" cx="91.25" cy="73.25" r="1.75"/><circle class="cls-1" cx="98.92" cy="73.25" r="1.75"/><circle class="cls-1" cx="106.59" cy="73.25" r="1.75"/><circle class="cls-1" cx="114.27" cy="73.25" r="1.75"/><circle class="cls-1" cx="121.94" cy="73.25" r="1.75"/><circle class="cls-1" cx="129.61" cy="73.25" r="1.75"/><circle class="cls-1" cx="137.28" cy="73.25" r="1.75"/><circle class="cls-1" cx="144.95" cy="73.25" r="1.75"/><circle class="cls-1" cx="152.62" cy="73.25" r="1.75"/></g></svg>
