<svg version="1.1" viewBox="0 0 390 390.21" xmlns="http://www.w3.org/2000/svg"><defs><linearGradient id="a" x1="256" x2="256" y1="436.63" y2="46.42" gradientTransform="translate(-61,-45)" gradientUnits="userSpaceOnUse"><stop stop-color="#3bb1c0" offset="0"/><stop stop-color="#44b3c0" offset=".37"/><stop stop-color="#b3dbe4" offset="1"/></linearGradient></defs><title>info</title><path d="M 195.12,390.21 C 302.46,390.21 390,302.69 390,195.11 390,87.76 302.46,0 195.12,0 87.54,0 0,87.76 0,195.11 c 0,107.58 87.54,195.1 195.12,195.1 z" fill="url(#a)" fill-rule="evenodd"/><path d="m195.12 12a178.11 178.11 0 0 1 178.12 178.15 35.16 35.16 0 0 1-0.23 5c-2.6-96-81.16-173.17-177.89-173.17s-175.52 77.11-178.12 173.13v-5a178.11 178.11 0 0 1 178.12-178.11z" fill="#c0e3ee" fill-rule="evenodd"/><path d="m261.65 293.49-3.78 15.57c-11.56 4.72-20.76 8-27.37 10.38a74.46 74.46 0 0 1-23.82 3.56c-13.92 0-24.77-3.3-32.32-10.14a32.59 32.59 0 0 1-11.56-25.72 114.26 114.26 0 0 1 0.71-12.5q1.06-6.37 2.83-14.16l14.15-50.72c1.42-5 2.36-9.44 3.3-13.92a53.94 53.94 0 0 0 1.21-11.84c0-6.37-1.18-10.85-4-13.45-2.6-2.6-7.55-4-15.1-4a38 38 0 0 0-11.32 1.89 103.27 103.27 0 0 0-10.14 3.3l4-15.57c9.2-4 18.17-7.08 26.89-9.91a82.81 82.81 0 0 1 24.06-4c13.92 0 24.53 3.3 32.08 9.91 7.31 6.61 11.09 15.34 11.09 26a98.13 98.13 0 0 1-0.94 11.56 71 71 0 0 1-2.85 15.27l-14.16 50.5a140 140 0 0 0-3.07 13.92 72.83 72.83 0 0 0-1.41 11.8c0 6.6 1.41 11.32 4.48 13.68s8.26 3.54 15.57 3.54a44.35 44.35 0 0 0 11.8-1.65 54.82 54.82 0 0 0 9.67-3.31zm1.41-194.4c0 9-3.3 16.28-9.91 22.65a34.09 34.09 0 0 1-24.07 9.2 34.9 34.9 0 0 1-24.06-9.2c-6.61-6.37-10.15-13.68-10.15-22.65 0-8.73 3.54-16.28 10.15-22.41a33.68 33.68 0 0 1 24.06-9.44c9.44 0 17.46 3.07 24.07 9.44a29.56 29.56 0 0 1 9.92 22.41z" fill="#47a4ad"/><path d="m253.16 293.49-3.78 15.57c-11.56 4.72-20.52 8-27.37 10.38a73.43 73.43 0 0 1-23.82 3.56c-13.92 0-24.54-3.3-32.32-10.14a32.59 32.59 0 0 1-11.56-25.72 76.16 76.16 0 0 1 0.94-12.5 130.82 130.82 0 0 1 2.6-14.16l14.39-50.72c1.18-5 2.36-9.44 3.07-13.92a55.2 55.2 0 0 0 1.42-11.8c0-6.37-1.42-10.85-4-13.45s-7.79-4-15.33-4a38 38 0 0 0-11.4 1.86 80.5 80.5 0 0 0-9.91 3.3l3.77-15.57c9.44-4 18.4-7.08 26.89-9.91a83 83 0 0 1 24.3-4q20.52 0 31.85 9.91c7.55 6.61 11.09 15.34 11.09 26 0 2.12-0.24 6.13-0.71 11.56a71 71 0 0 1-2.77 15.26l-14.16 50.5a135.24 135.24 0 0 0-3.3 13.92 72.83 72.83 0 0 0-1.41 11.8c0 6.6 1.65 11.32 4.72 13.68q4.24 3.54 15.57 3.54a47 47 0 0 0 11.79-1.65 58.2 58.2 0 0 0 9.44-3.31zm1.65-194.4c0 9-3.3 16.28-9.91 22.65a34.9 34.9 0 0 1-24.06 9.2 34.08 34.08 0 0 1-24.06-9.2c-6.84-6.37-10.15-13.68-10.15-22.65a29 29 0 0 1 10.15-22.41c6.61-6.37 14.63-9.44 24.06-9.44a33.68 33.68 0 0 1 24.06 9.44 29.55 29.55 0 0 1 9.91 22.41z" fill="#fff"/></svg>
